<svg width="auto" height="16px" viewBox="0 0 24 15" version="1.1" xmlns="http://www.w3.org/2000/svg" xmlns:xlink="http://www.w3.org/1999/xlink" xml:space="preserve" style="fill-rule:evenodd;clip-rule:evenodd;stroke-linejoin:round;stroke-miterlimit:2;">
    <g transform="matrix(1,0,0,1,-123,-139)">
        <g transform="matrix(0.0468751,0,0,0.0468751,123,134.059)">
            <path d="M468.013,177.425C420.005,172.132 372.176,154.76 329.699,127.186C284.96,98.146 227.052,98.139 182.301,127.186C139.823,154.76 91.995,172.132 43.987,177.425L0,182.275L0,329.726L43.986,334.575C91.994,339.868 139.823,357.24 182.3,384.814C227.039,413.854 284.947,413.861 329.698,384.814C372.176,357.24 420.004,339.869 468.012,334.575L511.999,329.726L511.999,182.275L468.013,177.425ZM481.882,302.746L464.713,304.639C412.058,310.445 359.699,329.433 313.301,359.551C278.535,382.117 233.47,382.121 198.699,359.551C152.3,329.433 99.942,310.445 47.287,304.638L30.118,302.746L30.118,209.255L47.287,207.362C99.942,201.556 152.3,182.568 198.699,152.45C233.465,129.884 278.529,129.88 313.301,152.45C359.7,182.568 412.058,201.556 464.713,207.363L481.882,209.255L481.882,302.746Z" style="fill-rule:nonzero;"></path>
            <path d="M256,165.647C206.179,165.647 165.647,206.179 165.647,256C165.647,305.821 206.179,346.353 256,346.353C305.821,346.353 346.353,305.821 346.353,256C346.353,206.179 305.821,165.647 256,165.647ZM256,316.235C222.786,316.235 195.765,289.214 195.765,256C195.765,222.786 222.786,195.765 256,195.765C289.214,195.765 316.235,222.786 316.235,256C316.235,289.214 289.214,316.235 256,316.235Z" style="fill-rule:nonzero;"></path>
            <rect x="376.471" y="240.941" width="75.294" height="30.118" style="fill-rule:nonzero;"></rect>
            <rect x="60.235" y="240.941" width="75.294" height="30.118" style="fill-rule:nonzero;"></rect>
        </g>
    </g>
</svg>
