<svg xmlns="http://www.w3.org/2000/svg" viewBox="0 0 436 238"><title>Asset 10</title><g id="Layer_2" data-name="Layer 2"><g id="Layer_1-2" data-name="Layer 1"><rect x="0.5" y="0.5" width="435" height="237" fill="#fff" stroke="#0a0b0c"/><rect x="1" y="1" width="434" height="21" fill="#bf3e45"/><rect x="1" y="123" width="434" height="21" fill="#bf3e45"/><rect x="1" y="62" width="434" height="21" fill="#bf3e45"/><rect x="1" y="184" width="434" height="21" fill="#bf3e45"/><rect x="1" y="215" width="434" height="21" fill="#bf3e45"/><rect x="1" y="32" width="434" height="20" fill="#bf3e45"/><rect x="1" y="154" width="434" height="20" fill="#bf3e45"/><rect x="1" y="93" width="434" height="20" fill="#bf3e45"/><rect x="1" y="1" width="186" height="131.75" fill="#1c305d"/><path d="M16.51,7.56l1.72,5.2h5.45L19.28,16,21,21.21,16.51,18l-4.39,3.2L13.79,16l-4.44-3.2h5.54Zm31,0,1.67,5.2h5.5L50.24,16l1.67,5.25L47.51,18l-4.44,3.2L44.74,16l-4.39-3.2h5.44Zm31,0,1.72,5.2h5.39L81.19,16l1.67,5.25L78.42,18,74,21.16,75.7,16l-4.45-3.2h5.5Zm31,0,1.67,5.2h5.49L112.19,16l1.72,5.25L109.47,18,105,21.16l1.72-5.2-4.44-3.2h5.45Zm30.95,0,1.72,5.2h5.45l-4.4,3.2,1.67,5.25L140.42,18,136,21.16,137.7,16l-4.4-3.2h5.45Zm31,0,1.68,5.2h5.49L174.15,16l1.72,5.25L171.42,18,167,21.16,168.7,16l-4.44-3.2h5.49ZM32,20.73l1.67,5.21H39.2l-4.44,3.2,1.62,5.2-4.3-3.2-4.44,3.2,1.58-5.2-4.3-3.2h5.44Zm31,0,1.72,5.21h5.44l-4.44,3.2,1.72,5.2L63,31.14l-4.44,3.2,1.72-5.2-4.45-3.2h5.5Zm31,0,1.67,5.21h5.5l-4.45,3.2,1.68,5.2L94,31.14l-4.44,3.2,1.67-5.2-4.39-3.2h5.44Zm31,0,1.71,5.21h5.45l-4.44,3.2,1.72,5.2L125,31.14l-4.4,3.2,1.67-5.2-4.44-3.2h5.54Zm31,0,1.67,5.21h5.49l-4.44,3.2,1.67,5.2L156,31.14l-4.45,3.2,1.68-5.2-4.4-3.2h5.45ZM16.51,33.86l1.72,5.3h5.45l-4.4,3.2L21,47.56l-4.44-3.24-4.39,3.24,1.67-5.25-4.44-3.2h5.54Zm31,0,1.67,5.25h5.5l-4.44,3.2,1.67,5.2-4.4-3.24-4.44,3.24,1.67-5.25-4.39-3.19h5.44Zm31,0,1.72,5.25h5.39l-4.39,3.2,1.67,5.2-4.44-3.24L74,47.51l1.68-5.25-4.45-3.19h5.5Zm31,0,1.67,5.25h5.49l-4.44,3.2,1.72,5.2-4.44-3.24L105,47.51l1.72-5.25-4.44-3.19h5.45Zm30.95,0,1.72,5.25h5.45l-4.4,3.2,1.67,5.2-4.44-3.24L136,47.51l1.67-5.25-4.4-3.19h5.45Zm31,0,1.68,5.25h5.49l-4.44,3.2,1.72,5.2-4.45-3.24L167,47.51l1.72-5.25-4.44-3.19h5.49ZM32,47l1.67,5.2H39.2l-4.44,3.2,1.67,5.25L32,57.45l-4.45,3.19,1.68-5.2-4.4-3.2h5.45Zm31,0,1.72,5.2h5.44l-4.44,3.2,1.72,5.25L63,57.45l-4.44,3.19,1.72-5.2-4.45-3.2h5.5Zm31,0,1.67,5.2h5.5l-4.45,3.2,1.68,5.25L94,57.45l-4.44,3.19,1.67-5.2-4.39-3.2h5.44Zm31,0,1.71,5.2h5.45l-4.4,3.2,1.68,5.25L125,57.45l-4.4,3.19,1.67-5.2-4.44-3.2h5.54Zm31,0,1.67,5.2h5.49l-4.44,3.2,1.67,5.25L156,57.45l-4.45,3.19,1.68-5.2-4.4-3.2h5.45ZM16.51,60.21l1.72,5.21h5.45l-4.4,3.2L21,73.87l-4.44-3.25-4.39,3.2,1.67-5.2-4.44-3.2h5.54Zm31,0,1.67,5.21h5.5l-4.44,3.2,1.67,5.2-4.4-3.2-4.44,3.2,1.67-5.2-4.39-3.2h5.44Zm31,0,1.72,5.21h5.39l-4.39,3.2,1.67,5.25-4.44-3.25L74,73.82l1.68-5.2-4.45-3.2h5.5Zm31,0,1.67,5.21h5.49l-4.44,3.2,1.72,5.25-4.44-3.25L105,73.82l1.72-5.2-4.44-3.2h5.45Zm30.95,0,1.72,5.21h5.45l-4.4,3.2,1.67,5.25-4.44-3.25L136,73.82l1.67-5.2-4.4-3.2h5.45Zm31,0,1.68,5.21h5.49l-4.44,3.2,1.72,5.25-4.45-3.25L167,73.82l1.72-5.2-4.44-3.2h5.49ZM32,73.39l1.67,5.2H39.2l-4.44,3.2L36.43,87,32,83.75,27.59,87l1.68-5.25-4.4-3.2h5.45Zm31,0,1.72,5.2h5.44l-4.44,3.2L67.43,87,63,83.75,58.55,87l1.72-5.25-4.45-3.2h5.5Zm31,0,1.67,5.2h5.5l-4.45,3.2L98.39,87,94,83.75,89.55,87l1.67-5.25-4.39-3.2h5.44Zm31,0,1.71,5.2h5.45l-4.4,3.2,1.68,5.2L125,83.75,120.55,87l1.67-5.25-4.44-3.2h5.54Zm31,0,1.67,5.2h5.49l-4.44,3.2,1.67,5.2L156,83.75,151.5,87l1.68-5.25-4.4-3.2h5.45ZM16.51,86.52l1.72,5.25h5.45L19.28,95,21,100.12l-4.44-3.19-4.39,3.19,1.67-5.2-4.44-3.2h5.54Zm31,0,1.67,5.25h5.5L50.24,95,52,100.12l-4.45-3.19-4.44,3.19,1.72-5.2-4.44-3.2h5.44Zm31,0,1.72,5.25h5.39L81.19,95l1.67,5.15-4.44-3.19L74,100.12l1.68-5.2-4.45-3.2h5.5Zm31,0,1.67,5.25h5.49L112.19,95l1.72,5.15-4.44-3.19L105,100.12l1.72-5.2-4.44-3.2h5.45Zm30.95,0,1.72,5.25h5.45l-4.4,3.2,1.67,5.15-4.44-3.19L136,100.12l1.67-5.2-4.4-3.2h5.45Zm31,0,1.68,5.25h5.49L174.15,95l1.72,5.15-4.45-3.19L167,100.12l1.72-5.2-4.44-3.2h5.49ZM32,99.69l1.67,5.21H39.2l-4.44,3.2,1.67,5.25L32,110.1l-4.45,3.2,1.68-5.2-4.4-3.2h5.45Zm31,0,1.72,5.21h5.44l-4.44,3.2,1.72,5.25L63,110.1l-4.44,3.2,1.72-5.2-4.45-3.2h5.5Zm31,0,1.67,5.21h5.5l-4.45,3.2,1.68,5.25L94,110.1l-4.44,3.2,1.67-5.2-4.39-3.2h5.44Zm31,0,1.71,5.21h5.45l-4.4,3.2,1.68,5.25L125,110.1l-4.4,3.2,1.67-5.2-4.44-3.2h5.54Zm31,0,1.67,5.21h5.49l-4.44,3.2,1.67,5.25L156,110.1l-4.45,3.2,1.68-5.2-4.4-3.2h5.45ZM16.51,112.87l1.72,5.2h5.45l-4.4,3.2L21,126.48l-4.44-3.2-4.39,3.2,1.67-5.26L9.35,118h5.54Zm31,0,1.67,5.2h5.5l-4.44,3.2L52,126.48l-4.45-3.2-4.44,3.2,1.72-5.26L40.35,118h5.44Zm31,0,1.72,5.2h5.39l-4.29,3.2L83,126.48l-4.45-3.2-4.39,3.2,1.67-5.26L71.35,118h5.49Zm31,0,1.67,5.2h5.49l-4.44,3.2,1.72,5.21-4.44-3.2-4.45,3.2,1.72-5.26L102.3,118h5.45Zm30.95,0,1.72,5.2h5.45l-4.4,3.2,1.67,5.21-4.44-3.2-4.39,3.2,1.67-5.26-4.4-3.2h5.45Zm31,0,1.68,5.2h5.49l-4.44,3.2,1.72,5.21-4.45-3.2-4.44,3.2,1.72-5.26-4.44-3.2h5.49Z" fill="#fff" fill-rule="evenodd"/></g></g></svg>